PathFileType	4	(X/Y/Z)	W12_1_OpenSim.trc																																																																																																				
DataRate	CameraRate	NumFrames	NumMarkers	Units	OrigDataRate	OrigDataStartFrame	OrigNumFrames																																																																																																
100	100	11	34	mm	100	371	2962																																																																																																
Frame#	Time	R.ASIS			R.PSIS			S2			L.PSIS			L.ASIS			R.TH1			R.TH2			R.TH3			R.Knee			R.SH1			R.SH2			R.SH3			R.SH4			R.Ankle			R.RFoot			R.Heel			R.MT5			R.MT1			L.TH1			L.TH2			L.TH3			L.TH4			L.Knee			L.SH1			L.SH2			L.SH3			L.Ankle			L.RFoot			L.Heel			L.MT5			L.MT1			T.Top			T.Lat			T.Bot		
		X1	Y1	Z1	X2	Y2	Z2	X3	Y3	Z3	X4	Y4	Z4	X5	Y5	Z5	X6	Y6	Z6	X7	Y7	Z7	X8	Y8	Z8	X9	Y9	Z9	X10	Y10	Z10	X11	Y11	Z11	X12	Y12	Z12	X13	Y13	Z13	X14	Y14	Z14	X15	Y15	Z15	X16	Y16	Z16	X17	Y17	Z17	X18	Y18	Z18	X19	Y19	Z19	X20	Y20	Z20	X21	Y21	Z21	X22	Y22	Z22	X23	Y23	Z23	X24	Y24	Z24	X25	Y25	Z25	X26	Y26	Z26	X27	Y27	Z27	X28	Y28	Z28	X29	Y29	Z29	X30	Y30	Z30	X31	Y31	Z31	X32	Y32	Z32	X33	Y33	Z33	X34	Y34	Z34
371	3.7	976.8958	982.2062	-441.6018	771.5469	1006.4043	-504.2582	764.9266	1000.5632	-555.9474	778.3051	1009.1753	-606.4598	989.6987	985.2837	-677.0781	939.7086	704.7214	-378.1129	862.0753	699.1657	-383.7321	869.1908	588.7056	-385.916	878.0984	464.5925	-392.0356	830.2138	389.3107	-380.623	737.6626	321.0242	-380.7448	783.028	454.9586	-395.7305	691.6425	388.2072	-388.7703	553.9831	220.4335	-428.2345	524.4901	164.6608	-427.1895	514.9569	251.5509	-484.9167	545.4998	74.695	-415.6815	592.7267	60.8868	-496.0113	1043.5593	721.2852	-702.7579	1056.9851	613.6884	-693.5797	971.1792	704.3883	-740.5457	985.6099	596.3735	-723.8016	1014.7512	476.2268	-693.8337	1034.2166	351.1596	-689.6371	955.1857	353.4514	-712.5211	949.6058	244.5811	-695.2381	963.6992	62.1901	-659.6995	1002.2648	13.3703	-661.1786	909.8003	34.6196	-615.792	1087.5884	12.475	-674.6566	1116.1963	27.5046	-579.2831	713.1161	462.7891	-440.7247	711.3857	469.7949	-478.1432	695.3442	434.9213	-460.7557
372	3.71	975.9402	983.2269	-441.6142	770.9628	1007.3718	-505.9683	764.4556	1001.8503	-557.5627	778.2834	1010.6205	-607.8711	989.8139	986.7799	-676.6552	948.1209	704.6534	-378.7993	868.0238	699.2771	-384.6278	878.2672	588.1961	-386.3021	891.1506	464.0397	-392.2647	842.2999	390.7905	-381.2894	749.2706	323.3848	-382.2867	795.9683	457.1846	-395.8533	703.8219	391.2758	-389.4735	564.7442	226.4579	-431.2332	535.5765	171.6537	-428.8015	525.4255	256.9201	-489.1228	557.002	82.155	-414.5828	604.0059	65.3748	-494.0054	1039.7428	719.8592	-702.8915	1051.8035	613.0419	-693.7376	968.0728	705.3335	-741.001	980.5142	596.9244	-724.7726	1007.0915	476.0481	-694.8298	1025.6742	350.6507	-689.9076	946.7943	353.674	-713.7153	940.009	244.7134	-696.3753	952.052	62.2545	-660.3206	990.1384	13.1169	-661.4275	897.6432	35.2201	-616.1609	1075.6008	12.3504	-674.8459	1103.7234	27.6622	-579.2385	726.3025	466.1171	-440.7617	725.0925	473.6146	-478.1131	708.5035	438.7592	-461.1266
373	3.72	975.0972	984.6534	-441.6994	770.5347	1008.8138	-507.3239	764.2081	1003.1758	-559.0145	778.2222	1012.2268	-609.384	989.9058	988.1592	-677.1138	953.6952	707.3493	-378.8174	873.0109	699.9116	-384.8326	886.6197	589.2509	-387.0771	903.4774	467.682	-392.0447	854.6175	392.319	-381.626	761.2808	325.5234	-383.4388	808.9425	459.7193	-396.3168	716.5255	393.7984	-391.09	576.2346	230.9331	-433.6688	547.9698	176.7207	-430.5605	536.59	260.884	-492.1665	570.5658	87.8564	-414.3273	616.932	69.3628	-494.5922	1036.8308	720.4467	-703.1786	1046.103	612.2323	-694.7563	963.5418	706.2908	-742.2031	974.8016	597.6091	-726.0615	998.8887	475.8193	-695.8736	1016.0004	350.2922	-690.9035	937.2584	353.8794	-714.5251	929.6113	245.0837	-697.0998	939.6663	62.2115	-660.4906	978.1423	13.1361	-661.8327	885.681	35.4311	-616.5084	1063.6742	12.2499	-675.1735	1091.7715	27.4889	-579.5098	739.2369	468.9975	-441.3685	738.2187	476.3751	-478.8429	721.6666	441.2925	-462.2675
374	3.73	974.6594	986.4094	-441.9459	769.9865	1010.2914	-508.7457	763.7738	1004.9429	-560.2924	777.6349	1013.8065	-610.5233	989.4888	990.0487	-676.8453	958.9275	710.3324	-378.9159	877.1752	700.5314	-383.9922	894.801	590.6367	-387.9394	914.9165	469.1124	-392.3109	867.0841	394.0101	-382.071	773.3222	327.6457	-384.6986	821.4863	461.9031	-397.029	728.6547	395.8934	-392.62	588.9387	233.4786	-435.9259	561.4966	179.6629	-432.4985	548.3279	263.1444	-494.3221	585.9828	91.794	-415.2593	632.0989	72.3108	-494.8859	1032.8303	719.7907	-703.8798	1039.9005	611.1784	-695.7851	959.2881	707.0333	-742.6221	968.446	597.9891	-726.8477	989.9157	475.7745	-697.0541	1005.6963	350.0483	-692.2851	926.7255	354.3382	-715.0989	917.9998	245.1098	-697.4745	927.8374	62.5548	-660.7975	966.2328	13.1016	-661.7758	873.751	36.0659	-616.7053	1051.6145	12.027	-675.5263	1079.934	27.6736	-579.7331	752.1912	470.869	-442.6917	751.4655	478.4407	-480.1013	734.5579	443.3761	-463.7419
375	3.74	973.8438	987.9009	-442.4573	769.4585	1012.0269	-509.6873	763.385	1006.4968	-561.3609	777.3532	1015.2999	-611.4393	988.9339	991.581	-677.2397	964.0666	713.3526	-379.3727	882.3488	701.293	-384.8231	903.0207	592.0295	-388.2827	926.2495	471.5449	-392.5844	878.984	396.3036	-382.9211	785.6376	329.562	-385.6271	833.1437	463.8152	-398.1124	741.1563	397.5029	-393.797	602.4383	234.5575	-437.8605	576.103	180.2963	-434.398	560.8967	263.5885	-496.1746	602.9856	93.3924	-417.0472	648.5276	74.5269	-497.2728	1028.5061	718.9731	-704.7177	1033.74	610.6148	-696.9501	954.561	707.8775	-743.2391	961.8209	598.8138	-727.6353	980.7549	475.7808	-698.1957	995.0192	349.6125	-693.8138	916.0773	354.7068	-715.6285	906.6194	245.7867	-697.9475	915.6924	62.5752	-661.4117	954.3896	12.9725	-661.8793	861.7332	36.4557	-617.0208	1039.5498	11.9404	-675.7471	1068.015	27.6546	-579.9635	764.791	472.5644	-444.3643	764.0795	480.1128	-481.6739	746.9799	444.9172	-465.2928
376	3.75	972.9272	989.2725	-443.1242	768.8756	1013.5563	-510.5648	762.848	1008.098	-562.2358	776.6745	1017.1399	-612.4866	987.4152	992.9097	-677.5817	968.7117	716.5903	-379.2636	888.0372	702.1883	-386.0661	911.0302	593.5543	-388.6901	937.2997	474.0739	-393.0445	890.647	397.4698	-383.528	796.9164	331.5844	-387.0402	845.5643	464.6794	-400.0317	753.6172	398.6431	-395.7419	616.5767	233.7603	-439.6467	591.3379	179.0426	-436.1919	574.0726	262.0103	-497.6288	620.8371	93.4202	-419.057	667.4651	75.4606	-498.854	1023.9681	718.2299	-705.403	1026.9853	609.8071	-698.0601	949.8467	708.6884	-743.8162	955.1049	599.3667	-728.2862	970.9943	475.6314	-698.3425	984.7255	349.6054	-694.6942	905.6453	354.6639	-716.2196	895.3837	246.2254	-698.3607	904.179	62.8614	-661.5393	942.1066	12.7992	-662.0741	849.5822	36.9717	-617.6193	1027.6464	11.8081	-676.1104	1056.0726	27.7799	-580.314	776.8247	473.6055	-446.1005	776.1044	481.2933	-483.3318	759.4034	446.1484	-466.8897
377	3.76	970.972	989.8634	-443.8844	768.3879	1015.1494	-511.3886	762.0745	1009.7249	-562.9262	776.0049	1018.5415	-613.1674	987.7542	995.3306	-678.6054	973.4775	719.5817	-379.7582	893.3773	703.2145	-386.8317	918.6171	595.4175	-388.6938	948.09	476.5958	-394.0402	903.0546	399.231	-384.8995	811.7214	332.6106	-387.7389	857.6176	465.9591	-401.7215	765.5767	399.2564	-397.2168	633.6506	230.1904	-443.6821	607.5921	176.0709	-437.7561	587.704	258.9133	-498.9594	640.3219	91.813	-421.2256	688.0839	74.7524	-500.1038	1019.2342	717.5005	-706.4268	1020.212	609.0754	-698.7361	944.5247	709.3715	-744.18	948.0053	600.0422	-728.9327	961.2061	475.5758	-699.2722	974.354	349.5396	-695.5322	895.3129	355.1422	-716.8217	884.7063	246.7318	-698.9608	891.4498	62.7815	-661.7184	930.1612	12.7354	-662.1077	837.8044	37.5566	-617.3937	1015.5449	11.5368	-676.3164	1043.9592	28.0572	-580.6284	788.0247	474.0929	-447.5473	787.6278	481.6076	-485.1009	771.1668	446.3644	-468.4923
378	3.77	972.987	993.2888	-445.2205	767.6447	1016.7034	-511.9295	761.5496	1011.2047	-563.5558	775.2003	1020.1041	-613.777	986.8185	996.5153	-679.6237	977.6436	722.9956	-380.0085	898.2567	704.5397	-386.8409	926.2473	597.1921	-388.4059	957.9015	479.7398	-395.1562	914.703	401.5987	-385.4448	824.702	332.6909	-389.0333	868.3149	467.2699	-403.2058	777.3586	398.7224	-398.7566	648.7325	226.7024	-445.2188	624.9336	171.4956	-439.5263	601.9362	253.7408	-500.5829	661.246	89.0451	-423.0637	709.1586	73.5977	-501.881	1014.2511	716.7682	-706.8901	1013.1381	608.1888	-699.7094	939.0964	710.1947	-744.6345	940.3784	600.8373	-729.3902	951.2513	475.8093	-700.5703	963.8535	349.8268	-696.1829	884.6643	355.9139	-717.5945	873.3908	247.5145	-699.3965	880.7452	62.5145	-661.0624	918.0691	12.8355	-662.2173	826.2366	38.5266	-617.5411	1002.7512	11.6826	-677.2165	1032.1521	28.047	-580.6525	798.7138	473.8276	-448.9856	798.0597	481.2831	-486.5006	782.2929	445.7741	-469.9367
379	3.78	972.568	994.6071	-446.3071	767.1284	1017.9986	-512.2804	760.8724	1012.382	-563.9959	774.5261	1021.3373	-614.1556	985.8686	997.1484	-681.1442	981.7148	726.3091	-380.5225	902.7838	705.9548	-386.5766	933.3588	599.076	-388.3848	967.764	481.4009	-395.6381	926.6359	402.6593	-387.0474	838.114	332.0488	-390.2328	877.7812	466.047	-404.1298	789.1008	396.8782	-399.8973	663.1055	222.332	-444.8504	643.4518	165.7351	-440.9996	616.6224	246.8136	-502.1538	683.4435	85.3293	-424.8521	731.4334	71.3522	-503.369	1009.023	715.9336	-707.4529	1005.827	607.2507	-700.6526	933.6176	710.827	-744.7645	933.138	601.4069	-730.0068	941.6379	476.2077	-701.0735	953.1513	350.02	-696.8552	873.9351	356.5373	-718.0366	862.0314	248.1771	-699.8783	868.5154	63.4223	-661.0313	906.1445	13.0538	-662.2691	813.9545	38.5343	-617.7955	991.4666	11.6377	-676.931	1020.6253	28.2229	-580.761	808.7233	472.4231	-450.1204	808.0694	480.1146	-487.4094	792.9572	444.4421	-470.9462
380	3.79	972.0579	995.5229	-447.3646	766.3348	1019.1489	-512.5937	760.0444	1013.6882	-564.2431	773.5167	1022.5931	-614.6028	984.829	997.7857	-682.2098	986.0915	729.5534	-381.4678	907.1964	707.2571	-386.1786	940.2311	601.0864	-388.5373	976.6446	483.7212	-397.0576	937.8107	403.9839	-388.1133	851.5018	330.925	-391.5627	887.0469	465.7701	-405.1704	800.3293	394.2785	-401.1107	680.9564	215.3781	-447.3199	662.9043	159.5567	-441.2197	632.0673	238.3281	-503.9431	706.8209	81.0183	-425.7441	755.6092	67.9743	-503.313	1003.5443	714.9758	-708.2257	998.6878	606.5729	-701.2678	928.1326	711.3688	-744.9147	925.3818	602.1424	-730.2052	931.7718	476.5623	-701.6919	942.0521	350.3581	-697.7909	862.639	357.3385	-718.2264	850.3121	248.9892	-700.1895	856.9957	64.0184	-661.3367	894.1661	12.8103	-661.9197	801.6579	39.9331	-617.6274	979.539	11.5127	-677.0902	1008.321	28.5784	-581.5873	818.0475	470.6109	-451.012	817.2123	478.2778	-488.4858	802.9775	442.1505	-471.9155
381	3.8	971.5004	996.4188	-448.2999	765.79	1020.1237	-512.9322	759.0779	1014.5676	-564.4847	772.7724	1023.4786	-614.7453	983.6644	998.2002	-683.1634	989.6872	732.6586	-381.8794	911.9259	708.5564	-386.1654	945.9179	604.0942	-387.3218	984.9704	486.3918	-398.2838	948.4067	405.0825	-389.5145	864.6733	329.3883	-393.0402	896.2568	465.8552	-405.6289	812.2976	391.2548	-402.5062	697.8012	208.1844	-448.4924	683.0699	150.77	-443.5711	648.5281	227.9242	-505.8977	731.1274	76.1116	-426.1655	781.3484	64.5699	-503.1807	997.891	714.2622	-708.7083	990.9866	605.9207	-702.0381	921.8931	712.157	-745.1475	917.6607	602.8175	-730.3546	921.9194	476.9024	-702.4866	931.0621	350.6551	-698.488	851.7353	358.256	-718.5375	838.4683	250.3731	-699.9891	845.0804	64.6477	-661.34	882.2638	13.1744	-661.7905	789.927	42.0778	-617.8483	967.542	11.4804	-677.0492	996.6796	28.7138	-581.7983	826.5809	468.0564	-451.6731	825.7742	475.9531	-489.0183	812.5979	439.4426	-472.8879
